<svg width="12" height="12" viewBox="0 0 12 12" fill="none" xmlns="http://www.w3.org/2000/svg">
<path d="M7.5 2C6.96957 2 6.46086 2.21071 6.08579 2.58579C5.71071 2.96086 5.5 3.46957 5.5 4C5.5 4.53043 5.71071 5.03914 6.08579 5.41421C6.46086 5.78929 6.96957 6 7.5 6C8.03043 6 8.53914 5.78929 8.91421 5.41421C9.28929 5.03914 9.5 4.53043 9.5 4C9.5 3.46957 9.28929 2.96086 8.91421 2.58579C8.53914 2.21071 8.03043 2 7.5 2ZM7.5 2.95C7.63789 2.95 7.77443 2.97716 7.90182 3.02993C8.02921 3.08269 8.14496 3.16004 8.24246 3.25754C8.33996 3.35504 8.41731 3.47079 8.47007 3.59818C8.52284 3.72557 8.55 3.86211 8.55 4C8.55 4.13789 8.52284 4.27443 8.47007 4.40182C8.41731 4.52921 8.33996 4.64496 8.24246 4.74246C8.14496 4.83996 8.02921 4.91731 7.90182 4.97007C7.77443 5.02284 7.63789 5.05 7.5 5.05C7.36211 5.05 7.22557 5.02284 7.09818 4.97007C6.97079 4.91731 6.85504 4.83996 6.75754 4.74246C6.66004 4.64496 6.58269 4.52921 6.52993 4.40182C6.47716 4.27443 6.45 4.13789 6.45 4C6.45 3.72152 6.56062 3.45445 6.75754 3.25754C6.95445 3.06062 7.22152 2.95 7.5 2.95ZM2 3.5V5H0.5V6H2V7.5H3V6H4.5V5H3V3.5H2ZM7.5 6.5C6.165 6.5 3.5 7.165 3.5 8.5V10H11.5V8.5C11.5 7.165 8.835 6.5 7.5 6.5ZM7.5 7.45C8.985 7.45 10.55 8.18 10.55 8.5V9.05H4.45V8.5C4.45 8.18 6 7.45 7.5 7.45Z" fill="black"/>
</svg>
