<svg width="12" height="12" viewBox="0 0 12 12" fill="none" xmlns="http://www.w3.org/2000/svg">
<path fill-rule="evenodd" clip-rule="evenodd" d="M5.99997 3.90698C5.4137 3.90698 4.85144 4.1275 4.43688 4.52001C4.02232 4.91253 3.78943 5.4449 3.78943 6.00001C3.78943 6.55511 4.02232 7.08748 4.43688 7.48C4.85144 7.87251 5.4137 8.09303 5.99997 8.09303C6.58625 8.09303 7.14851 7.87251 7.56307 7.48C7.97762 7.08748 8.21052 6.55511 8.21052 6.00001C8.21052 5.4449 7.97762 4.91253 7.56307 4.52001C7.14851 4.1275 6.58625 3.90698 5.99997 3.90698ZM4.67365 6.00001C4.67365 5.66694 4.81338 5.34752 5.06212 5.11201C5.31085 4.8765 5.64821 4.74419 5.99997 4.74419C6.35174 4.74419 6.68909 4.8765 6.93783 5.11201C7.18656 5.34752 7.3263 5.66694 7.3263 6.00001C7.3263 6.33307 7.18656 6.65249 6.93783 6.888C6.68909 7.12351 6.35174 7.25582 5.99997 7.25582C5.64821 7.25582 5.31085 7.12351 5.06212 6.888C4.81338 6.65249 4.67365 6.33307 4.67365 6.00001Z" fill="black"/>
<path fill-rule="evenodd" clip-rule="evenodd" d="M5.98526 0C5.72295 0 5.50425 -1.03962e-08 5.32505 0.0111628C5.14184 0.0181487 4.96115 0.0539883 4.79039 0.117209C4.59365 0.194283 4.41488 0.307297 4.26427 0.449797C4.11367 0.592298 3.99419 0.761494 3.91266 0.947721C3.82718 1.14307 3.80419 1.34958 3.79476 1.57395C3.79371 1.65599 3.77072 1.73644 3.72794 1.80778C3.68516 1.87913 3.62399 1.93905 3.55013 1.98195C3.47398 2.0212 3.38857 2.04153 3.30187 2.04105C3.21517 2.04056 3.13002 2.01927 3.05437 1.97916C2.84452 1.87423 2.6441 1.78995 2.42245 1.76205C2.21139 1.73576 1.99692 1.74909 1.7913 1.80129C1.58567 1.85348 1.39292 1.94351 1.22404 2.06623C1.08103 2.17478 0.958114 2.30512 0.860336 2.45191C0.760124 2.59367 0.650481 2.77284 0.519617 2.98772L0.50488 3.01228C0.373426 3.22716 0.264373 3.40633 0.185383 3.55926C0.102856 3.71888 0.038013 3.87628 0.0144338 4.05042C-0.0418023 4.45395 0.0735465 4.8621 0.33511 5.18512C0.47128 5.35312 0.648713 5.47535 0.849136 5.59479C0.923783 5.6367 0.985978 5.69586 1.0299 5.76673C1.07382 5.83759 1.09802 5.91786 1.10025 6C1.09802 6.08214 1.07382 6.16241 1.0299 6.23327C0.985978 6.30414 0.923783 6.3633 0.849136 6.40521C0.648713 6.52465 0.471869 6.64688 0.33511 6.81488C0.205494 6.97478 0.110409 7.15729 0.0552865 7.35198C0.000163543 7.54667 -0.0139185 7.74974 0.0138444 7.94958C0.038013 8.12372 0.102266 8.28112 0.184793 8.44074C0.264373 8.59367 0.373426 8.77284 0.50488 8.98772L0.519617 9.01228C0.650481 9.22716 0.760124 9.40633 0.860336 9.54809C0.964673 9.69488 1.07667 9.82716 1.22404 9.93321C1.39288 10.056 1.58561 10.1462 1.79123 10.1985C1.99686 10.2507 2.21135 10.2642 2.42245 10.238C2.6441 10.21 2.84452 10.1263 3.05437 10.0208C3.12995 9.98083 3.21499 9.9596 3.30158 9.95911C3.38816 9.95862 3.47346 9.9789 3.54954 10.018C3.624 10.0604 3.68571 10.1202 3.72875 10.1916C3.7718 10.2631 3.79473 10.3438 3.79535 10.426C3.80419 10.6504 3.82718 10.8569 3.91325 11.0523C3.99465 11.2386 4.11401 11.4078 4.26451 11.5504C4.41501 11.693 4.59371 11.8062 4.79039 11.8833C4.96134 11.9503 5.13818 11.9766 5.32505 11.9883C5.50425 12 5.72295 12 5.98526 12H6.01474C6.27705 12 6.49575 12 6.67495 11.9888C6.86241 11.9766 7.03866 11.9503 7.20961 11.8828C7.40635 11.8057 7.58512 11.6927 7.73573 11.5502C7.88633 11.4077 8.00581 11.2385 8.08734 11.0523C8.17282 10.8569 8.19581 10.6504 8.20524 10.426C8.20619 10.3439 8.22914 10.2634 8.27192 10.1919C8.3147 10.1205 8.37593 10.0604 8.44987 10.0175C8.52607 9.97832 8.61151 9.95809 8.6982 9.95868C8.7849 9.95926 8.87003 9.98065 8.94562 10.0208C9.15548 10.1258 9.3559 10.21 9.57755 10.2374C10.0037 10.2906 10.4348 10.1814 10.776 9.93377C10.9233 9.82661 11.0353 9.69488 11.1397 9.54809C11.2399 9.40633 11.3495 9.22716 11.4804 9.01228L11.4951 8.98772C11.6266 8.77284 11.7356 8.59367 11.8146 8.44074C11.8971 8.28112 11.962 8.12316 11.9856 7.94958C12.0418 7.54605 11.9265 7.1379 11.6649 6.81488C11.5287 6.64688 11.3513 6.52465 11.1509 6.40521C11.0762 6.3633 11.014 6.30414 10.9701 6.23327C10.9262 6.16241 10.902 6.08214 10.8997 6C10.8997 5.84484 10.9893 5.69079 11.1509 5.59479C11.3513 5.47535 11.5281 5.35312 11.6649 5.18512C11.7945 5.02522 11.8896 4.84271 11.9447 4.64802C11.9998 4.45333 12.0139 4.25026 11.9862 4.05042C11.9584 3.87884 11.9006 3.71285 11.8152 3.55926C11.7145 3.37383 11.6078 3.19142 11.4951 3.01228L11.4804 2.98772C11.3727 2.80581 11.2591 2.62712 11.1397 2.45191C11.0418 2.30532 10.9189 2.17517 10.776 2.06679C10.6071 1.94397 10.4144 1.85384 10.2088 1.80155C10.0031 1.74926 9.78865 1.73584 9.57755 1.76205C9.3559 1.78995 9.15548 1.87367 8.94562 1.97916C8.87005 2.01917 8.78501 2.0404 8.69842 2.04089C8.61184 2.04138 8.52654 2.0211 8.45046 1.98195C8.37638 1.93919 8.31498 1.87932 8.27199 1.80797C8.229 1.73661 8.20583 1.6561 8.20465 1.57395C8.19581 1.34958 8.17282 1.14307 8.08675 0.947721C8.00535 0.761442 7.88599 0.59217 7.73549 0.449574C7.58499 0.306977 7.40629 0.19385 7.20961 0.116651C7.03866 0.0496744 6.86182 0.0234419 6.67495 0.0117209C6.49575 1.55942e-08 6.27705 0 6.01474 0H5.98526ZM5.12875 0.890233C5.17414 0.872372 5.24311 0.856186 5.38517 0.846698C5.53077 0.837209 5.71941 0.837209 6 0.837209C6.28059 0.837209 6.46922 0.837209 6.61483 0.846698C6.75689 0.856186 6.82586 0.872372 6.87125 0.890233C7.05222 0.961116 7.19546 1.09674 7.27033 1.26809C7.29391 1.32167 7.31336 1.40595 7.32102 1.60521C7.33871 2.04726 7.5798 2.47312 8.00776 2.70698C8.43573 2.94084 8.94562 2.92577 9.35885 2.71926C9.54512 2.62605 9.63178 2.59981 9.69308 2.59256C9.88677 2.56833 10.0827 2.61791 10.2378 2.73042C10.2767 2.75888 10.3262 2.80744 10.4058 2.91907C10.4877 3.03405 10.582 3.18865 10.7223 3.4186C10.8626 3.64856 10.9563 3.80372 11.0206 3.92763C11.0837 4.04874 11.1031 4.11349 11.109 4.15981C11.1346 4.3432 11.0822 4.5287 10.9634 4.67554C10.9257 4.72186 10.8585 4.77991 10.6805 4.88595C10.2843 5.12149 10.0155 5.53228 10.0155 6C10.0155 6.46772 10.2843 6.87851 10.6805 7.11405C10.8585 7.22009 10.9257 7.27814 10.9634 7.32447C11.0825 7.47126 11.1344 7.65656 11.109 7.84019C11.1031 7.88651 11.0831 7.95181 11.0206 8.07237C10.9563 8.19684 10.8626 8.35144 10.7223 8.5814C10.582 8.81135 10.4871 8.96595 10.4058 9.08093C10.3262 9.19256 10.2767 9.24112 10.2378 9.26958C10.0827 9.38209 9.88677 9.43167 9.69308 9.40744C9.63178 9.40019 9.54571 9.37395 9.35885 9.28074C8.94621 9.07423 8.43573 9.05861 8.00776 9.29247C7.5798 9.52633 7.33871 9.95275 7.32102 10.3948C7.31336 10.594 7.29391 10.6783 7.27033 10.7319C7.23329 10.8166 7.17899 10.8936 7.11051 10.9584C7.04203 11.0233 6.96073 11.0747 6.87125 11.1098C6.82586 11.1276 6.75689 11.1438 6.61483 11.1533C6.46922 11.1628 6.28059 11.1628 6 11.1628C5.71941 11.1628 5.53077 11.1628 5.38517 11.1533C5.24311 11.1438 5.17414 11.1276 5.12875 11.1098C5.03927 11.0747 4.95797 11.0233 4.88949 10.9584C4.82101 10.8936 4.76671 10.8166 4.72967 10.7319C4.70609 10.6783 4.68664 10.594 4.67898 10.3948C4.66129 9.95275 4.4202 9.52688 3.99224 9.29302C3.56427 9.05916 3.05438 9.07423 2.64115 9.28074C2.45488 9.37395 2.36822 9.40019 2.30692 9.40744C2.11323 9.43167 1.91732 9.38209 1.76224 9.26958C1.72333 9.24112 1.67382 9.19256 1.59424 9.08093C1.48334 8.91753 1.37778 8.75094 1.27769 8.5814C1.13739 8.35144 1.04366 8.19628 0.97941 8.07237C0.916336 7.95126 0.896883 7.88651 0.890988 7.84019C0.865396 7.6568 0.917768 7.4713 1.03659 7.32447C1.07432 7.27814 1.14152 7.22009 1.31954 7.11405C1.71567 6.87851 1.98447 6.46772 1.98447 6C1.98447 5.53228 1.71567 5.12149 1.31954 4.88595C1.14152 4.77991 1.07432 4.72186 1.03659 4.67554C0.917768 4.5287 0.865396 4.3432 0.890988 4.15981C0.896883 4.11349 0.916926 4.04819 0.97941 3.92763C1.04366 3.80316 1.13739 3.64856 1.27769 3.4186C1.41798 3.18865 1.51289 3.03405 1.59424 2.91907C1.67382 2.80744 1.72333 2.75888 1.76224 2.73042C1.91732 2.61791 2.11323 2.56833 2.30692 2.59256C2.36822 2.59981 2.45429 2.62605 2.64115 2.71926C3.05379 2.92577 3.56427 2.9414 3.99224 2.70698C4.4202 2.47312 4.66129 2.04726 4.67898 1.60521C4.68664 1.40595 4.70609 1.32167 4.72967 1.26809C4.80454 1.09674 4.94778 0.961116 5.12875 0.890233Z" fill="black"/>
</svg>
