<svg width="1em" height="1em" viewBox="0 0 12 12" fill="none" xmlns="http://www.w3.org/2000/svg">
<path d="M4.125 8.77778V9.33333C4.125 9.77536 4.32254 10.1993 4.67417 10.5118C5.02581 10.8244 5.50272 11 6 11C6.49728 11 6.97419 10.8244 7.32583 10.5118C7.67746 10.1993 7.875 9.77536 7.875 9.33333V8.77778M4.75 2.11111C4.75 1.81643 4.8817 1.53381 5.11612 1.32544C5.35054 1.11706 5.66848 1 6 1C6.33152 1 6.64946 1.11706 6.88388 1.32544C7.1183 1.53381 7.25 1.81643 7.25 2.11111C7.96776 2.41279 8.57963 2.8824 9.02003 3.46961C9.46044 4.05682 9.71277 4.73949 9.75 5.44444V7.11111C9.79703 7.4565 9.93465 7.78725 10.1518 8.07674C10.3689 8.36622 10.6594 8.60634 11 8.77778H1C1.34059 8.60634 1.63113 8.36622 1.84824 8.07674C2.06535 7.78725 2.20297 7.4565 2.25 7.11111V5.44444C2.28723 4.73949 2.53956 4.05682 2.97997 3.46961C3.42037 2.8824 4.03224 2.41279 4.75 2.11111Z" stroke="currentColor" stroke-width="1" stroke-linecap="round" stroke-linejoin="round"/>
</svg>
