<svg width="12" height="12" viewBox="0 0 12 12" fill="none" xmlns="http://www.w3.org/2000/svg">
<path d="M1.6 10V10.4H2.4V10H1.6ZM5.6 10V10.4H6.4V10H5.6ZM2.4 10V9.60001H1.6V10H2.4ZM5.6 9.60001V10H6.4V9.60001H5.6ZM4 8.00001C4.42435 8.00001 4.83131 8.16858 5.13137 8.46864C5.43143 8.76869 5.6 9.17566 5.6 9.60001H6.4C6.4 8.96349 6.14714 8.35304 5.69706 7.90295C5.24697 7.45286 4.63652 7.20001 4 7.20001V8.00001ZM2.4 9.60001C2.4 9.17566 2.56857 8.76869 2.86863 8.46864C3.16869 8.16858 3.57565 8.00001 4 8.00001V7.20001C3.36348 7.20001 2.75303 7.45286 2.30294 7.90295C1.85286 8.35304 1.6 8.96349 1.6 9.60001H2.4ZM4 3.20001C3.57565 3.20001 3.16869 3.36858 2.86863 3.66864C2.56857 3.96869 2.4 4.37566 2.4 4.80001H3.2C3.2 4.58783 3.28429 4.38435 3.43431 4.23432C3.58434 4.08429 3.78783 4.00001 4 4.00001V3.20001ZM5.6 4.80001C5.6 4.37566 5.43143 3.96869 5.13137 3.66864C4.83131 3.36858 4.42435 3.20001 4 3.20001V4.00001C4.21217 4.00001 4.41566 4.08429 4.56569 4.23432C4.71571 4.38435 4.8 4.58783 4.8 4.80001H5.6ZM4 6.40001C4.42435 6.40001 4.83131 6.23144 5.13137 5.93138C5.43143 5.63132 5.6 5.22435 5.6 4.80001H4.8C4.8 5.01218 4.71571 5.21566 4.56569 5.36569C4.41566 5.51572 4.21217 5.60001 4 5.60001V6.40001ZM4 5.60001C3.78783 5.60001 3.58434 5.51572 3.43431 5.36569C3.28429 5.21566 3.2 5.01218 3.2 4.80001H2.4C2.4 5.22435 2.56857 5.63132 2.86863 5.93138C3.16869 6.23144 3.57565 6.40001 4 6.40001V5.60001ZM1.2 2.40001H10.8V1.60001H1.2V2.40001ZM11.2 2.80001V9.20001H12V2.80001H11.2ZM10.8 9.60001H1.2V10.4H10.8V9.60001ZM0.8 9.20001V2.80001H0V9.20001H0.8ZM1.2 9.60001C1.09391 9.60001 0.992172 9.55786 0.917157 9.48285C0.842143 9.40783 0.8 9.30609 0.8 9.20001H0C0 9.51827 0.126428 9.82349 0.351472 10.0485C0.576515 10.2736 0.88174 10.4 1.2 10.4V9.60001ZM11.2 9.20001C11.2 9.30609 11.1579 9.40783 11.0828 9.48285C11.0078 9.55786 10.9061 9.60001 10.8 9.60001V10.4C11.1183 10.4 11.4235 10.2736 11.6485 10.0485C11.8736 9.82349 12 9.51827 12 9.20001H11.2ZM10.8 2.40001C10.9061 2.40001 11.0078 2.44215 11.0828 2.51716C11.1579 2.59218 11.2 2.69392 11.2 2.80001H12C12 2.48175 11.8736 2.17652 11.6485 1.95148C11.4235 1.72643 11.1183 1.60001 10.8 1.60001V2.40001ZM1.2 1.60001C0.88174 1.60001 0.576515 1.72643 0.351472 1.95148C0.126428 2.17652 0 2.48175 0 2.80001H0.8C0.8 2.69392 0.842143 2.59218 0.917157 2.51716C0.992172 2.44215 1.09391 2.40001 1.2 2.40001V1.60001ZM7.2 4.80001H9.6V4.00001H7.2V4.80001ZM7.2 7.20001H9.6V6.40001H7.2V7.20001Z" fill="black"/>
</svg>
