<svg width="1em" height="1em" viewBox="0 0 12 12" fill="none" xmlns="http://www.w3.org/2000/svg">
<path d="M10.7666 1.07813C7.50053 2.62027 5.17071 6.45555 4.07325 8.60238L3.8309 9.07991L3.57025 8.61499C2.72202 7.09553 1.41078 6.34459 1.26445 6.26396C1.14099 6.19592 1.00724 6.16442 0.878061 6.16442C0.559126 6.16442 0.249321 6.35845 0.0938339 6.69359C-0.122227 7.16733 0.0469627 7.74814 0.476803 7.99382C0.527104 8.02279 1.668 8.69434 2.22129 9.91268C2.52539 10.583 3.12554 11 3.78746 11H3.84919C4.49854 11 5.09298 10.6094 5.4005 9.97693C6.02696 8.68299 8.31792 4.34245 11.4672 2.85844C11.9119 2.64929 12.12 2.07727 11.9291 1.58717C11.7393 1.09707 11.2203 0.867742 10.7756 1.07817L10.7666 1.07813Z" fill="currentColor"/>
</svg>
