<svg width="12" height="12" viewBox="0 0 12 12" fill="none" xmlns="http://www.w3.org/2000/svg">
<path d="M3.68314 0.000233893C3.20144 -0.00523487 2.72344 0.0852469 2.27683 0.266439C1.83022 0.447632 1.42387 0.715935 1.08131 1.05581C0.738749 1.39568 0.466791 1.80038 0.281181 2.24646C0.095572 2.69253 0 3.17113 0 3.65453C0 4.13792 0.095572 4.61652 0.281181 5.0626C0.466791 5.50867 0.738749 5.91337 1.08131 6.25324C1.42387 6.59312 1.83022 6.86142 2.27683 7.04261C2.72344 7.22381 3.20144 7.31429 3.68314 7.30882C4.64904 7.30882 5.57538 6.92379 6.25838 6.23843C6.94137 5.55308 7.32508 4.62353 7.32508 3.65429C7.32508 2.68505 6.94137 1.75551 6.25838 1.07015C5.57538 0.384795 4.64904 0.000233914 3.68314 0.000233893ZM2.51779 1.27111C2.67669 1.27086 2.83407 1.30209 2.98092 1.36301C3.12776 1.42393 3.26118 1.51334 3.37351 1.6261C3.48585 1.73887 3.5749 1.87278 3.63555 2.02016C3.6962 2.16753 3.72726 2.32547 3.72696 2.48492C3.72739 2.64438 3.6964 2.80235 3.63579 2.94976C3.57518 3.09716 3.48613 3.23109 3.37376 3.34384C3.26139 3.4566 3.12793 3.54596 2.98103 3.60678C2.83413 3.6676 2.6767 3.69869 2.51779 3.69826C2.35888 3.69869 2.20146 3.6676 2.05456 3.60678C1.90766 3.54596 1.77419 3.4566 1.66183 3.34384C1.54946 3.23109 1.46041 3.09716 1.3998 2.94976C1.33918 2.80235 1.3082 2.64438 1.30863 2.48492C1.30839 2.32551 1.33949 2.16762 1.40017 2.0203C1.46085 1.87298 1.54991 1.73913 1.66224 1.62641C1.77457 1.51369 1.90796 1.42432 2.05478 1.36344C2.20159 1.30255 2.35894 1.27086 2.51779 1.27111ZM7.68913 5.34942C7.56134 5.64948 7.39995 5.93399 7.20808 6.19745L10.85 9.85151C10.9266 9.92941 10.9695 10.0344 10.9695 10.1438C10.9695 10.2533 10.9266 10.3583 10.85 10.4362C10.7724 10.513 10.6677 10.5561 10.5587 10.5561C10.4496 10.5561 10.345 10.513 10.2673 10.4362L6.66922 6.81113C6.21479 7.24304 5.67342 7.57224 5.08155 7.77657V8.41972C5.08155 8.62553 5.25449 8.79954 5.46052 8.79954H6.47997V9.82297C6.47997 10.0288 6.6529 10.2028 6.85894 10.2028H7.87838V11.2262C7.87838 11.432 8.05179 11.606 8.25735 11.606H9.29125L9.55368 11.8694C9.7131 12.0289 11.3101 12.1089 11.7096 11.7085C12.1091 11.3071 12.0284 9.70463 11.8695 9.54513L7.68913 5.34942Z" fill="black"/>
</svg>
