<svg width="12" height="12" viewBox="0 0 12 12" fill="none" xmlns="http://www.w3.org/2000/svg">
<path d="M7.99549 0.517501C8.31947 0.330552 8.68939 0.238205 9.06322 0.250948C9.43705 0.26369 9.79982 0.381013 10.1103 0.58959C10.4208 0.798166 10.6666 1.08964 10.8198 1.4309C10.9729 1.77215 11.0273 2.14952 10.9767 2.52014C10.9262 2.89076 10.7727 3.23977 10.5337 3.52753C10.2947 3.81529 9.97987 4.03027 9.62484 4.14805C9.26982 4.26583 8.88888 4.28169 8.5253 4.19383C8.16171 4.10597 7.83005 3.9179 7.56799 3.651L4.42799 5.464C4.47699 5.64167 4.50116 5.82033 4.50049 6C4.50049 6.179 4.47699 6.3595 4.42799 6.536L7.56799 8.349C7.90942 8.00276 8.36525 7.79269 8.85028 7.75806C9.33532 7.72343 9.81637 7.86661 10.2035 8.16084C10.5907 8.45506 10.8574 8.8802 10.954 9.3568C11.0505 9.83339 10.9702 10.3288 10.728 10.7505C10.485 11.1729 10.0962 11.4921 9.63455 11.6481C9.1729 11.804 8.67018 11.7861 8.22081 11.5977C7.77143 11.4092 7.40633 11.0631 7.19406 10.6245C6.98179 10.1859 6.93696 9.68485 7.06799 9.2155L3.92799 7.402C3.64962 7.68548 3.29315 7.87968 2.90401 7.95985C2.51488 8.04001 2.11068 8.00252 1.74293 7.85215C1.37518 7.70177 1.06051 7.44532 0.839028 7.11548C0.617544 6.78563 0.499268 6.39731 0.499268 6C0.499268 5.60269 0.617544 5.21438 0.839028 4.88453C1.06051 4.55468 1.37518 4.29823 1.74293 4.14786C2.11068 3.99748 2.51488 3.95999 2.90401 4.04016C3.29315 4.12032 3.64962 4.31452 3.92799 4.598L7.06799 2.785C6.94932 2.3577 6.97603 1.90308 7.14393 1.49262C7.31182 1.08216 7.61138 0.73914 7.99549 0.517501ZM9.86149 1.75C9.79631 1.63536 9.70909 1.53474 9.60487 1.45393C9.50064 1.37313 9.38146 1.31375 9.25418 1.27919C9.12691 1.24464 8.99406 1.2356 8.86328 1.2526C8.7325 1.2696 8.60637 1.3123 8.49216 1.37824C8.37795 1.44418 8.27791 1.53206 8.19781 1.63682C8.1177 1.74158 8.0591 1.86116 8.02539 1.98866C7.99168 2.11615 7.98353 2.24906 8.00139 2.37973C8.01926 2.51039 8.06279 2.63623 8.12949 2.75C8.26304 2.97781 8.48128 3.14354 8.73657 3.21104C8.99187 3.27854 9.2635 3.24231 9.49219 3.11028C9.72087 2.97824 9.88805 2.76111 9.95724 2.50627C10.0264 2.25142 9.99201 1.97956 9.86149 1.75ZM1.53549 6.2635C1.57602 6.41096 1.6498 6.54717 1.75117 6.66168C1.85253 6.77619 1.97878 6.86596 2.12023 6.92408C2.26168 6.98221 2.41457 7.00715 2.56716 6.99699C2.71975 6.98684 2.86799 6.94186 3.00049 6.8655C3.16226 6.772 3.29459 6.63505 3.3825 6.47017C3.4704 6.3053 3.51035 6.11909 3.49782 5.93267C3.4853 5.74625 3.42079 5.56706 3.31162 5.41543C3.20245 5.2638 3.05298 5.14578 2.88016 5.07477C2.70733 5.00375 2.51807 4.98257 2.33383 5.01363C2.14958 5.0447 1.97773 5.12675 1.83774 5.25051C1.69776 5.37426 1.59524 5.53476 1.54182 5.7138C1.4884 5.89284 1.48621 6.08327 1.53549 6.2635ZM9.49549 8.8845C9.38172 8.8178 9.25588 8.77427 9.12522 8.7564C8.99455 8.73854 8.86165 8.74669 8.73415 8.7804C8.60665 8.81411 8.48707 8.87271 8.38231 8.95282C8.27755 9.03292 8.18967 9.13296 8.12373 9.24717C8.05779 9.36139 8.01509 9.48751 7.99809 9.61829C7.98109 9.74907 7.99013 9.88192 8.02468 10.0092C8.05924 10.1365 8.11862 10.2556 8.19942 10.3599C8.28023 10.4641 8.38085 10.5513 8.49549 10.6165C8.72505 10.747 8.99691 10.7814 9.25176 10.7123C9.5066 10.6431 9.72373 10.4759 9.85577 10.2472C9.9878 10.0185 10.024 9.74688 9.95653 9.49158C9.88903 9.23629 9.7233 9.01805 9.49549 8.8845Z" fill="black"/>
</svg>
