<svg width="12" height="12" viewBox="0 0 12 12" fill="none" xmlns="http://www.w3.org/2000/svg">
<path fill-rule="evenodd" clip-rule="evenodd" d="M7.5 0.625H5.472C4.553 0.625 3.825 0.625 3.2555 0.7015C2.6695 0.7805 2.195 0.9465 1.8205 1.3205C1.4465 1.695 1.2805 2.1695 1.2015 2.7555C1.125 3.3255 1.125 4.053 1.125 4.972V8C1.12491 8.44674 1.28433 8.87883 1.57455 9.21845C1.86477 9.55808 2.26671 9.78293 2.708 9.8525C2.7765 10.2345 2.909 10.5605 3.174 10.826C3.475 11.127 3.854 11.256 4.304 11.317C4.7375 11.375 5.289 11.375 5.9725 11.375H7.5275C8.211 11.375 8.7625 11.375 9.196 11.317C9.646 11.256 10.025 11.127 10.326 10.826C10.627 10.525 10.756 10.146 10.817 9.696C10.875 9.2625 10.875 8.711 10.875 8.0275V5.4725C10.875 4.789 10.875 4.2375 10.817 3.804C10.756 3.354 10.627 2.975 10.326 2.674C10.0605 2.409 9.7345 2.2765 9.3525 2.208C9.28293 1.76671 9.05808 1.36477 8.71845 1.07455C8.37883 0.78433 7.94674 0.62491 7.5 0.625ZM8.565 2.1355C8.48897 1.9135 8.34543 1.72083 8.15446 1.58446C7.96349 1.4481 7.73466 1.37486 7.5 1.375H5.5C4.5465 1.375 3.8695 1.376 3.355 1.445C2.8525 1.5125 2.5625 1.6395 2.351 1.851C2.1395 2.0625 2.0125 2.3525 1.945 2.855C1.876 3.3695 1.875 4.0465 1.875 5V8C1.87486 8.23466 1.9481 8.46349 2.08446 8.65446C2.22083 8.84542 2.4135 8.98897 2.6355 9.065C2.625 8.76 2.625 8.415 2.625 8.0275V5.4725C2.625 4.789 2.625 4.2375 2.6835 3.804C2.7435 3.354 2.8735 2.975 3.174 2.674C3.475 2.373 3.854 2.244 4.304 2.1835C4.7375 2.125 5.289 2.125 5.9725 2.125H7.5275C7.915 2.125 8.26 2.125 8.565 2.1355ZM3.704 3.205C3.8425 3.0665 4.0365 2.9765 4.404 2.927C4.781 2.8765 5.282 2.8755 5.9995 2.8755H7.4995C8.217 2.8755 8.7175 2.8765 9.0955 2.927C9.4625 2.9765 9.6565 3.067 9.795 3.205C9.9335 3.3435 10.0235 3.5375 10.073 3.905C10.1235 4.282 10.1245 4.783 10.1245 5.5005V8.0005C10.1245 8.718 10.1235 9.2185 10.073 9.5965C10.0235 9.9635 9.933 10.1575 9.795 10.296C9.6565 10.4345 9.4625 10.5245 9.095 10.574C8.7175 10.6245 8.217 10.6255 7.4995 10.6255H5.9995C5.282 10.6255 4.781 10.6245 4.4035 10.574C4.0365 10.5245 3.8425 10.434 3.704 10.296C3.5655 10.1575 3.4755 9.9635 3.426 9.596C3.3755 9.2185 3.3745 8.718 3.3745 8.0005V5.5005C3.3745 4.783 3.3755 4.282 3.426 3.9045C3.4755 3.5375 3.566 3.3435 3.704 3.205Z" fill="black"/>
</svg>
