<svg width="1em" height="1em" viewBox="0 0 12 12" fill="none" xmlns="http://www.w3.org/2000/svg">
<path fill-rule="evenodd" clip-rule="evenodd" d="M6.006 2.78598L5.4625 2.24248C5.20777 1.98431 4.90448 1.77908 4.57011 1.6386C4.23573 1.49813 3.87687 1.42518 3.51419 1.42397C3.1515 1.42275 2.79216 1.49329 2.45685 1.63152C2.12154 1.76975 1.81689 1.97295 1.56043 2.22941C1.30397 2.48586 1.10078 2.79052 0.962546 3.12583C0.824314 3.46114 0.753775 3.82048 0.75499 4.18316C0.756205 4.54585 0.82915 4.90471 0.969626 5.23908C1.1101 5.57346 1.31533 5.87675 1.5735 6.13148L5.993 10.551L5.994 10.55L6.007 10.563L10.4265 6.14348C10.6847 5.88875 10.8899 5.58546 11.0304 5.25108C11.1709 4.91671 11.2438 4.55785 11.245 4.19516C11.2462 3.83248 11.1757 3.47314 11.0375 3.13783C10.8992 2.80252 10.696 2.49786 10.4396 2.24141C10.1831 1.98495 9.87846 1.78175 9.54315 1.64352C9.20784 1.50529 8.8485 1.43475 8.48582 1.43597C8.12314 1.43718 7.76427 1.51013 7.4299 1.6506C7.09552 1.79108 6.79224 1.99631 6.5375 2.25448L6.006 2.78598ZM5.994 9.13598L8.462 6.66748L9.187 5.96748H9.188L9.7195 5.43648C10.0477 5.10827 10.2321 4.66313 10.2321 4.19898C10.2321 3.73483 10.0477 3.28968 9.7195 2.96148C9.3913 2.63327 8.94616 2.44889 8.482 2.44889C8.01785 2.44889 7.57271 2.63327 7.2445 2.96148L6.0065 4.19998L6.003 4.19648L4.7555 2.94998C4.4273 2.62177 3.98216 2.43739 3.518 2.43739C3.05385 2.43739 2.60871 2.62177 2.2805 2.94998C1.9523 3.27818 1.76791 3.72333 1.76791 4.18748C1.76791 4.65163 1.9523 5.09677 2.2805 5.42498L3.5505 6.69498L3.551 6.69348L5.994 9.13598Z" fill="currentColor"/>
</svg>
