<svg width="12" height="12" viewBox="0 0 12 12" fill="none" xmlns="http://www.w3.org/2000/svg">
<path d="M2 6V3.5C2 3.30302 2.0388 3.10796 2.11418 2.92597C2.18956 2.74399 2.30005 2.57863 2.43934 2.43934C2.57863 2.30005 2.74399 2.18956 2.92597 2.11418C3.10796 2.0388 3.30302 2 3.5 2C3.69698 2 3.89204 2.0388 4.07403 2.11418C4.25601 2.18956 4.42137 2.30005 4.56066 2.43934C4.69995 2.57863 4.81044 2.74399 4.88582 2.92597C4.9612 3.10796 5 3.30302 5 3.5V6M2 4.5H5M10 3V6M2 8H8M2 10H5M7 10L8 11L10.5 8.5M7 4.5C7 4.89782 7.15804 5.27936 7.43934 5.56066C7.72064 5.84196 8.10218 6 8.5 6C8.89782 6 9.27936 5.84196 9.56066 5.56066C9.84196 5.27936 10 4.89782 10 4.5C10 4.10218 9.84196 3.72064 9.56066 3.43934C9.27936 3.15804 8.89782 3 8.5 3C8.10218 3 7.72064 3.15804 7.43934 3.43934C7.15804 3.72064 7 4.10218 7 4.5Z" stroke="black" stroke-linecap="round" stroke-linejoin="round"/>
</svg>
