<svg width="12" height="12" viewBox="0 0 12 12" fill="none" xmlns="http://www.w3.org/2000/svg">
<path d="M10.2116 8.85675L7.50001 5.12813V1.5H8.25001V0.75H3.75001V1.5H4.50001V5.12813L1.78839 8.85675C1.62482 9.08154 1.52664 9.3472 1.5047 9.62434C1.48276 9.90147 1.53792 10.1793 1.66407 10.427C1.79023 10.6747 1.98246 10.8827 2.2195 11.028C2.45653 11.1732 2.72913 11.2501 3.00714 11.25H8.99251C9.27051 11.2501 9.54311 11.1732 9.78015 11.028C10.0172 10.8827 10.2094 10.6747 10.3356 10.427C10.4617 10.1793 10.5169 9.90147 10.4949 9.62434C10.473 9.3472 10.3748 9.08154 10.2113 8.85675M5.25001 5.37187V1.5H6.75001V5.37187L7.75239 6.75H4.24764L5.25001 5.37187ZM8.99289 10.5H3.00751C2.86793 10.4998 2.73111 10.4611 2.61214 10.3881C2.49318 10.3151 2.39669 10.2107 2.33334 10.0863C2.26999 9.96193 2.24224 9.82248 2.25314 9.68332C2.26405 9.54417 2.31319 9.41074 2.39514 9.29775L3.70239 7.5H8.29764L9.60526 9.29775C9.68721 9.41074 9.73635 9.54417 9.74726 9.68332C9.75816 9.82248 9.7304 9.96193 9.66705 10.0863C9.6037 10.2107 9.50722 10.3151 9.38825 10.3881C9.26929 10.4611 9.13246 10.4998 8.99289 10.5Z" fill="black"/>
</svg>
