<svg width="12" height="12" viewBox="0 0 12 12" fill="none" xmlns="http://www.w3.org/2000/svg">
<path d="M9 11.25H3C2.80109 11.25 2.61032 11.171 2.46967 11.0303C2.32902 10.8897 2.25 10.6989 2.25 10.5V1.5C2.25 1.30109 2.32902 1.11032 2.46967 0.96967C2.61032 0.829018 2.80109 0.75 3 0.75H9C9.19891 0.75 9.38968 0.829018 9.53033 0.96967C9.67098 1.11032 9.75 1.30109 9.75 1.5V7.73175L7.875 6.79425L6 7.73175V1.5H3V10.5H9V9H9.75V10.5C9.7497 10.6988 9.67059 10.8894 9.53 11.03C9.38941 11.1706 9.19882 11.2497 9 11.25ZM7.875 5.95575L9 6.51825V1.5H6.75V6.51825L7.875 5.95575Z" fill="black"/>
</svg>
