<svg width="12" height="12" viewBox="0 0 12 12" fill="none" xmlns="http://www.w3.org/2000/svg">
<path fill-rule="evenodd" clip-rule="evenodd" d="M8.03001 5.46996C8.17046 5.61058 8.24935 5.8012 8.24935 5.99996C8.24935 6.19871 8.17046 6.38933 8.03001 6.52996L5.20201 9.35896C5.06131 9.49959 4.87051 9.57857 4.67158 9.57852C4.47265 9.57847 4.28189 9.4994 4.14126 9.35871C4.00062 9.21801 3.92165 9.02721 3.92169 8.82828C3.92174 8.62935 4.00081 8.43859 4.14151 8.29796L6.43951 5.99996L4.14151 3.70196C4.00482 3.56057 3.92913 3.37115 3.93075 3.1745C3.93236 2.97785 4.01115 2.78971 4.15014 2.65058C4.28913 2.51146 4.47721 2.4325 4.67385 2.4307C4.8705 2.42889 5.05999 2.5044 5.20151 2.64096L8.03051 5.46946L8.03001 5.46996Z" fill="black"/>
</svg>
