<svg width="13" height="13" viewBox="0 0 13 13" fill="none" xmlns="http://www.w3.org/2000/svg">
<path fill-rule="evenodd" clip-rule="evenodd" d="M1.07522 1.07688C1.27957 0.872363 1.55669 0.757474 1.84564 0.757474C2.1346 0.757474 2.41172 0.872363 2.61607 1.07688L6.74935 5.2147L10.8826 1.07688C10.9832 0.972684 11.1034 0.889576 11.2363 0.832403C11.3693 0.775229 11.5123 0.745135 11.657 0.743877C11.8017 0.742618 11.9452 0.77022 12.0791 0.825071C12.213 0.879923 12.3347 0.960927 12.437 1.06336C12.5393 1.16578 12.6202 1.28759 12.675 1.42165C12.7298 1.55572 12.7574 1.69937 12.7561 1.84422C12.7549 1.98907 12.7248 2.13222 12.6677 2.26532C12.6106 2.39841 12.5276 2.51879 12.4235 2.61942L8.29021 6.75724L12.4235 10.8951C12.622 11.1008 12.7318 11.3764 12.7293 11.6624C12.7269 11.9484 12.6123 12.2221 12.4102 12.4243C12.2082 12.6266 11.9349 12.7413 11.6491 12.7438C11.3634 12.7463 11.0882 12.6363 10.8826 12.4376L6.74935 8.29979L2.61607 12.4376C2.41055 12.6363 2.13529 12.7463 1.84957 12.7438C1.56385 12.7413 1.29053 12.6266 1.08849 12.4243C0.88645 12.2221 0.771846 11.9484 0.769363 11.6624C0.76688 11.3764 0.876718 11.1008 1.07522 10.8951L5.2085 6.75724L1.07522 2.61942C0.870928 2.41485 0.756165 2.13742 0.756165 1.84815C0.756165 1.55888 0.870928 1.28145 1.07522 1.07688Z" fill="black"/>
</svg>
