<svg width="12" height="12" viewBox="0 0 12 12" fill="none" xmlns="http://www.w3.org/2000/svg">
<path d="M3.02501 8.88752C2.85834 8.79585 2.72917 8.67302 2.63751 8.51902C2.54584 8.36502 2.50001 8.19202 2.50001 8.00002V5.60002L1.30001 4.93752C1.20834 4.88752 1.14167 4.82502 1.10001 4.75002C1.05834 4.67502 1.03751 4.59169 1.03751 4.50002C1.03751 4.40835 1.05834 4.32502 1.10001 4.25002C1.14167 4.17502 1.20834 4.11252 1.30001 4.06252L5.52501 1.76252C5.60001 1.72085 5.67717 1.68952 5.75651 1.66852C5.83584 1.64752 5.91701 1.63719 6.00001 1.63752C6.08301 1.63785 6.16434 1.64835 6.24401 1.66902C6.32367 1.68969 6.40067 1.72085 6.47501 1.76252L11.2375 4.36252C11.3208 4.40419 11.3855 4.46469 11.4315 4.54402C11.4775 4.62335 11.5003 4.70869 11.5 4.80002V8.00002C11.5 8.14169 11.452 8.26052 11.356 8.35652C11.26 8.45252 11.1413 8.50035 11 8.50002C10.8587 8.49969 10.74 8.45169 10.644 8.35602C10.548 8.26035 10.5 8.14169 10.5 8.00002V5.05002L9.50001 5.60002V8.00002C9.50001 8.19169 9.45417 8.36469 9.36251 8.51902C9.27084 8.67335 9.14167 8.79619 8.97501 8.88752L6.47501 10.2375C6.40001 10.2792 6.32301 10.3105 6.24401 10.3315C6.16501 10.3525 6.08367 10.3629 6.00001 10.3625C5.91634 10.3622 5.83501 10.3519 5.75601 10.3315C5.67701 10.3112 5.60001 10.2799 5.52501 10.2375L3.02501 8.88752ZM6.00001 6.35002L9.42501 4.50002L6.00001 2.65002L2.57501 4.50002L6.00001 6.35002ZM6.00001 9.36252L8.50001 8.01252V6.12502L6.48751 7.23752C6.41251 7.27919 6.33334 7.31052 6.25001 7.33152C6.16667 7.35252 6.08334 7.36285 6.00001 7.36252C5.91667 7.36219 5.83334 7.35185 5.75001 7.33152C5.66667 7.31119 5.58751 7.27985 5.51251 7.23752L3.50001 6.12502V8.01252L6.00001 9.36252Z" fill="black"/>
</svg>
