<svg width="1em" height="1em" viewBox="0 0 12 12" fill="none" xmlns="http://www.w3.org/2000/svg">
<path d="M1.25 3L4 2L6.75 3L5.5 3.75V4.5C5.5 4.5 5.1665 4.25 4 4.25C2.8335 4.25 2.5 4.5 2.5 4.5V3.75L1.25 3ZM1.25 3V5" stroke="currentColor" stroke-width="0.7" stroke-linecap="round" stroke-linejoin="round"/>
<path d="M5.5 4.5V4.9445C5.5 5.8035 4.8285 6.5 4 6.5C3.1715 6.5 2.5 5.8035 2.5 4.9445V4.5M7.659 5.765C7.659 5.765 7.9015 5.5885 8.75 5.5885C9.5985 5.5885 9.841 5.7645 9.841 5.7645M7.659 5.765V5.25L6.75 4.75L8.75 4L10.75 4.75L9.841 5.25V5.7645M7.659 5.765V5.909C7.659 6.19835 7.77394 6.47585 7.97855 6.68045C8.18315 6.88506 8.46065 7 8.75 7C9.03935 7 9.31685 6.88506 9.52145 6.68045C9.72606 6.47585 9.841 6.19835 9.841 5.909V5.7645M8 10.25H9.8525C10.239 10.25 10.546 10.062 10.822 9.799C11.387 9.261 10.4595 8.831 10.106 8.6205C9.79162 8.43494 9.44254 8.31582 9.08031 8.2705C8.71808 8.22518 8.3504 8.25462 8 8.357M2.1925 8.213C1.721 8.4765 0.4845 9.014 1.2375 9.6865C1.6055 10.015 2.015 10.25 2.5305 10.25H5.4695C5.9845 10.25 6.3945 10.015 6.7625 9.6865C7.5155 9.014 6.279 8.4765 5.8075 8.213C4.7015 7.5955 3.2985 7.5955 2.1925 8.213Z" stroke="currentColor" stroke-width="0.7" stroke-linecap="round" stroke-linejoin="round"/>
</svg>
