<svg width="12" height="12" viewBox="0 0 12 12" fill="none" xmlns="http://www.w3.org/2000/svg">
<path d="M4.66669 2.99999C4.66669 2.91158 4.70181 2.8268 4.76432 2.76429C4.82683 2.70178 4.91161 2.66666 5.00002 2.66666H7.66669C7.75509 2.66666 7.83988 2.70178 7.90239 2.76429C7.9649 2.8268 8.00002 2.91158 8.00002 2.99999C8.00002 3.0884 7.9649 3.17318 7.90239 3.23569C7.83988 3.2982 7.75509 3.33332 7.66669 3.33332H5.00002C4.91161 3.33332 4.82683 3.2982 4.76432 3.23569C4.70181 3.17318 4.66669 3.0884 4.66669 2.99999ZM5.00002 3.99999C4.91161 3.99999 4.82683 4.03511 4.76432 4.09762C4.70181 4.16013 4.66669 4.24492 4.66669 4.33332C4.66669 4.42173 4.70181 4.50651 4.76432 4.56903C4.82683 4.63154 4.91161 4.66666 5.00002 4.66666H7.66669C7.75509 4.66666 7.83988 4.63154 7.90239 4.56903C7.9649 4.50651 8.00002 4.42173 8.00002 4.33332C8.00002 4.24492 7.9649 4.16013 7.90239 4.09762C7.83988 4.03511 7.75509 3.99999 7.66669 3.99999H5.00002ZM4.66669 7.33332C4.66669 7.24492 4.70181 7.16013 4.76432 7.09762C4.82683 7.03511 4.91161 6.99999 5.00002 6.99999H7.66669C7.75509 6.99999 7.83988 7.03511 7.90239 7.09762C7.9649 7.16013 8.00002 7.24492 8.00002 7.33332C8.00002 7.42173 7.9649 7.50651 7.90239 7.56903C7.83988 7.63154 7.75509 7.66666 7.66669 7.66666H5.00002C4.91161 7.66666 4.82683 7.63154 4.76432 7.56903C4.70181 7.50651 4.66669 7.42173 4.66669 7.33332ZM5.00002 8.33332C4.91161 8.33332 4.82683 8.36844 4.76432 8.43095C4.70181 8.49347 4.66669 8.57825 4.66669 8.66666C4.66669 8.75506 4.70181 8.83985 4.76432 8.90236C4.82683 8.96487 4.91161 8.99999 5.00002 8.99999H7.66669C7.75509 8.99999 7.83988 8.96487 7.90239 8.90236C7.9649 8.83985 8.00002 8.75506 8.00002 8.66666C8.00002 8.57825 7.9649 8.49347 7.90239 8.43095C7.83988 8.36844 7.75509 8.33332 7.66669 8.33332H5.00002Z" fill="black"/>
<path fill-rule="evenodd" clip-rule="evenodd" d="M1.33331 6.99999C1.33331 6.91158 1.36843 6.8268 1.43094 6.76429C1.49346 6.70178 1.57824 6.66666 1.66665 6.66666H3.33331C3.42172 6.66666 3.5065 6.70178 3.56902 6.76429C3.63153 6.8268 3.66665 6.91158 3.66665 6.99999V8.66666C3.66665 8.75506 3.63153 8.83985 3.56902 8.90236C3.5065 8.96487 3.42172 8.99999 3.33331 8.99999H1.66665C1.57824 8.99999 1.49346 8.96487 1.43094 8.90236C1.36843 8.83985 1.33331 8.75506 1.33331 8.66666V6.99999ZM1.99998 7.33332V8.33332H2.99998V7.33332H1.99998Z" fill="black"/>
<path d="M3.90231 3.23568C3.96303 3.17281 3.99662 3.08861 3.99586 3.00121C3.99511 2.91381 3.96005 2.83021 3.89825 2.76841C3.83644 2.7066 3.75284 2.67155 3.66544 2.67079C3.57804 2.67003 3.49384 2.70363 3.43097 2.76435L2.33331 3.86201L1.90231 3.43101C1.83944 3.37029 1.75524 3.3367 1.66784 3.33746C1.58044 3.33821 1.49684 3.37327 1.43503 3.43507C1.37323 3.49688 1.33817 3.58048 1.33741 3.66788C1.33666 3.75528 1.37025 3.83948 1.43097 3.90235L2.33331 4.80468L3.90231 3.23568Z" fill="black"/>
<path fill-rule="evenodd" clip-rule="evenodd" d="M1.33333 0C0.979711 0 0.640573 0.140476 0.390524 0.390524C0.140476 0.640573 0 0.979711 0 1.33333V10.6667C0 11.0203 0.140476 11.3594 0.390524 11.6095C0.640573 11.8595 0.979711 12 1.33333 12H8C8.35362 12 8.69276 11.8595 8.94281 11.6095C9.19286 11.3594 9.33333 11.0203 9.33333 10.6667V1.33333C9.33333 0.979711 9.19286 0.640573 8.94281 0.390524C8.69276 0.140476 8.35362 0 8 0H1.33333ZM0.666667 1.33333C0.666667 1.15652 0.736905 0.986953 0.861929 0.861929C0.986953 0.736905 1.15652 0.666667 1.33333 0.666667H8C8.17681 0.666667 8.34638 0.736905 8.47141 0.861929C8.59643 0.986953 8.66667 1.15652 8.66667 1.33333V10.6667C8.66667 10.8435 8.59643 11.013 8.47141 11.1381C8.34638 11.2631 8.17681 11.3333 8 11.3333H1.33333C1.15652 11.3333 0.986953 11.2631 0.861929 11.1381C0.736905 11.013 0.666667 10.8435 0.666667 10.6667V1.33333ZM10 3.33333C10 3.06812 10.1054 2.81376 10.2929 2.62623C10.4804 2.43869 10.7348 2.33333 11 2.33333C11.2652 2.33333 11.5196 2.43869 11.7071 2.62623C11.8946 2.81376 12 3.06812 12 3.33333V10.101L11 11.601L10 10.101V3.33333ZM11 3C10.9116 3 10.8268 3.03512 10.7643 3.09763C10.7018 3.16014 10.6667 3.24493 10.6667 3.33333V4H11.3333V3.33333C11.3333 3.24493 11.2982 3.16014 11.2357 3.09763C11.1732 3.03512 11.0884 3 11 3ZM11 10.399L10.6667 9.899V4.66667H11.3333V9.899L11 10.399Z" fill="black"/>
</svg>
