<svg width="1em" height="1em" viewBox="0 0 12 12" fill="none" xmlns="http://www.w3.org/2000/svg">
<path opacity="0.5" fill-rule="evenodd" clip-rule="evenodd" d="M3.03125 2.41125V2.5625C3.03125 2.68682 3.08064 2.80605 3.16854 2.89396C3.25645 2.98186 3.37568 3.03125 3.5 3.03125C3.62432 3.03125 3.74355 2.98186 3.83146 2.89396C3.91936 2.80605 3.96875 2.68682 3.96875 2.5625V2.40625H8.03125V2.5625C8.03125 2.68682 8.08064 2.80605 8.16854 2.89396C8.25645 2.98186 8.37568 3.03125 8.5 3.03125C8.62432 3.03125 8.74355 2.98186 8.83146 2.89396C8.91936 2.80605 8.96875 2.68682 8.96875 2.5625V2.41125C9.03792 2.41375 9.10083 2.41729 9.1575 2.42188C9.3375 2.43625 9.42313 2.4625 9.47938 2.49125C9.62688 2.56625 9.74625 2.68563 9.82125 2.83313C9.85 2.88938 9.87625 2.975 9.89063 3.15438C9.90563 3.33938 9.90625 3.57937 9.90625 3.9375V4.28125H2.09375V3.9375C2.09375 3.58 2.09375 3.33938 2.10938 3.15438C2.12375 2.975 2.15 2.88938 2.17875 2.83313C2.25369 2.68588 2.37338 2.56619 2.52063 2.49125C2.57688 2.4625 2.6625 2.43625 2.84188 2.42188C2.9049 2.41674 2.96805 2.41319 3.03125 2.41125ZM5.0625 2.875C4.93818 2.875 4.81895 2.92439 4.73104 3.01229C4.64314 3.1002 4.59375 3.21943 4.59375 3.34375C4.59375 3.46807 4.64314 3.5873 4.73104 3.67521C4.81895 3.76311 4.93818 3.8125 5.0625 3.8125H6.9375C7.06182 3.8125 7.18105 3.76311 7.26896 3.67521C7.35686 3.5873 7.40625 3.46807 7.40625 3.34375C7.40625 3.21943 7.35686 3.1002 7.26896 3.01229C7.18105 2.92439 7.06182 2.875 6.9375 2.875H5.0625Z" fill="currentColor"/>
<path d="M3.8125 7.25C4.0197 7.25 4.21841 7.16769 4.36493 7.02118C4.51144 6.87466 4.59375 6.67595 4.59375 6.46875C4.59375 6.26155 4.51144 6.06284 4.36493 5.91632C4.21841 5.76981 4.0197 5.6875 3.8125 5.6875C3.6053 5.6875 3.40659 5.76981 3.26007 5.91632C3.11356 6.06284 3.03125 6.26155 3.03125 6.46875C3.03125 6.67595 3.11356 6.87466 3.26007 7.02118C3.40659 7.16769 3.6053 7.25 3.8125 7.25ZM3.8125 9.4375C4.0197 9.4375 4.21841 9.35519 4.36493 9.20868C4.51144 9.06217 4.59375 8.86345 4.59375 8.65625C4.59375 8.44905 4.51144 8.25034 4.36493 8.10382C4.21841 7.95731 4.0197 7.875 3.8125 7.875C3.6053 7.875 3.40659 7.95731 3.26007 8.10382C3.11356 8.25034 3.03125 8.44905 3.03125 8.65625C3.03125 8.86345 3.11356 9.06217 3.26007 9.20868C3.40659 9.35519 3.6053 9.4375 3.8125 9.4375ZM6.78125 6.46875C6.78125 6.67595 6.69894 6.87466 6.55243 7.02118C6.40591 7.16769 6.2072 7.25 6 7.25C5.7928 7.25 5.59409 7.16769 5.44757 7.02118C5.30106 6.87466 5.21875 6.67595 5.21875 6.46875C5.21875 6.26155 5.30106 6.06284 5.44757 5.91632C5.59409 5.76981 5.7928 5.6875 6 5.6875C6.2072 5.6875 6.40591 5.76981 6.55243 5.91632C6.69894 6.06284 6.78125 6.26155 6.78125 6.46875ZM6 9.4375C6.2072 9.4375 6.40591 9.35519 6.55243 9.20868C6.69894 9.06217 6.78125 8.86345 6.78125 8.65625C6.78125 8.44905 6.69894 8.25034 6.55243 8.10382C6.40591 7.95731 6.2072 7.875 6 7.875C5.7928 7.875 5.59409 7.95731 5.44757 8.10382C5.30106 8.25034 5.21875 8.44905 5.21875 8.65625C5.21875 8.86345 5.30106 9.06217 5.44757 9.20868C5.59409 9.35519 5.7928 9.4375 6 9.4375ZM8.96875 6.46875C8.96875 6.67595 8.88644 6.87466 8.73993 7.02118C8.59341 7.16769 8.3947 7.25 8.1875 7.25C7.9803 7.25 7.78159 7.16769 7.63507 7.02118C7.48856 6.87466 7.40625 6.67595 7.40625 6.46875C7.40625 6.26155 7.48856 6.06284 7.63507 5.91632C7.78159 5.76981 7.9803 5.6875 8.1875 5.6875C8.3947 5.6875 8.59341 5.76981 8.73993 5.91632C8.88644 6.06284 8.96875 6.26155 8.96875 6.46875Z" fill="currentColor"/>
<path fill-rule="evenodd" clip-rule="evenodd" d="M3.5 0.53125C3.62432 0.53125 3.74355 0.580636 3.83146 0.668544C3.91936 0.756451 3.96875 0.87568 3.96875 1V1.46875H8.03125V1C8.03125 0.87568 8.08064 0.756451 8.16854 0.668544C8.25645 0.580636 8.37568 0.53125 8.5 0.53125C8.62432 0.53125 8.74355 0.580636 8.83146 0.668544C8.91936 0.756451 8.96875 0.87568 8.96875 1V1.47375C9.06375 1.47625 9.15229 1.48083 9.23438 1.4875C9.47187 1.50625 9.69437 1.54875 9.905 1.65625C10.2285 1.82104 10.4915 2.08403 10.6562 2.4075C10.7638 2.61812 10.8062 2.84062 10.825 3.07812C10.8438 3.30625 10.8438 3.58438 10.8438 3.91875V8.70625C10.8438 9.04062 10.8438 9.31875 10.825 9.54688C10.8062 9.78437 10.7638 10.0069 10.6562 10.2175C10.4916 10.5409 10.2289 10.8039 9.90563 10.9688C9.69438 11.0763 9.47187 11.1187 9.23438 11.1375C9.00625 11.1562 8.72813 11.1562 8.39438 11.1562H3.60625C3.27188 11.1562 2.99375 11.1562 2.76562 11.1375C2.52812 11.1187 2.30562 11.0763 2.095 10.9688C1.77172 10.8043 1.50876 10.5418 1.34375 10.2188C1.23625 10.0075 1.19375 9.785 1.175 9.5475C1.15625 9.31938 1.15625 9.04125 1.15625 8.7075V3.91875C1.15625 3.58438 1.15625 3.30625 1.175 3.07812C1.19375 2.84062 1.23625 2.61812 1.34375 2.4075C1.50854 2.08403 1.77153 1.82104 2.095 1.65625C2.30562 1.54875 2.52812 1.50625 2.76562 1.4875C2.84771 1.48083 2.93625 1.47625 3.03125 1.47375V1C3.03125 0.938443 3.04337 0.877489 3.06693 0.820617C3.09049 0.763746 3.12502 0.712071 3.16854 0.668544C3.21207 0.625016 3.26375 0.590488 3.32062 0.566931C3.37749 0.543375 3.43844 0.53125 3.5 0.53125ZM3.03125 2.5625V2.41125C2.96805 2.41319 2.9049 2.41674 2.84188 2.42188C2.6625 2.43625 2.57688 2.4625 2.52063 2.49125C2.37338 2.56619 2.25369 2.68588 2.17875 2.83313C2.15 2.88937 2.12375 2.975 2.10938 3.15438C2.09438 3.33938 2.09375 3.57937 2.09375 3.9375V4.28125H9.90625V3.9375C9.90625 3.58 9.90625 3.33938 9.89062 3.15438C9.87625 2.975 9.85 2.88937 9.82125 2.83313C9.74631 2.68588 9.62662 2.56619 9.47937 2.49125C9.42312 2.4625 9.3375 2.43625 9.1575 2.42188C9.09468 2.41675 9.03175 2.4132 8.96875 2.41125V2.5625C8.96875 2.68682 8.91936 2.80605 8.83146 2.89396C8.74355 2.98186 8.62432 3.03125 8.5 3.03125C8.37568 3.03125 8.25645 2.98186 8.16854 2.89396C8.08064 2.80605 8.03125 2.68682 8.03125 2.5625V2.40625H3.96875V2.5625C3.96875 2.68682 3.91936 2.80605 3.83146 2.89396C3.74355 2.98186 3.62432 3.03125 3.5 3.03125C3.37568 3.03125 3.25645 2.98186 3.16854 2.89396C3.08064 2.80605 3.03125 2.68682 3.03125 2.5625ZM9.90625 4.90625H2.09375V8.6875C2.09375 9.045 2.09375 9.28563 2.10938 9.47C2.12375 9.65 2.15 9.73562 2.17875 9.79187C2.25375 9.93937 2.37313 10.0588 2.52063 10.1337C2.57688 10.1625 2.6625 10.1888 2.84188 10.2031C3.02688 10.2181 3.26687 10.2188 3.625 10.2188H8.375C8.7325 10.2188 8.97312 10.2188 9.1575 10.2031C9.3375 10.1888 9.42312 10.1625 9.47937 10.1337C9.62662 10.0588 9.74631 9.93912 9.82125 9.79187C9.85 9.73562 9.87625 9.65 9.89062 9.47C9.90563 9.28563 9.90625 9.045 9.90625 8.6875V4.90625Z" fill="currentColor"/>
</svg>
