<svg width="12" height="12" viewBox="0 0 12 12" fill="none" xmlns="http://www.w3.org/2000/svg">
<path d="M4.5 2.5C4.36739 2.5 4.24021 2.55268 4.14645 2.64645C4.05268 2.74022 4 2.8674 4 3C4 3.13261 4.05268 3.25979 4.14645 3.35356C4.24021 3.44733 4.36739 3.5 4.5 3.5C4.63261 3.5 4.75979 3.44733 4.85355 3.35356C4.94732 3.25979 5 3.13261 5 3C5 2.8674 4.94732 2.74022 4.85355 2.64645C4.75979 2.55268 4.63261 2.5 4.5 2.5ZM3.085 2.5C3.1883 2.20724 3.37987 1.95372 3.6333 1.7744C3.88673 1.59508 4.18954 1.49878 4.5 1.49878C4.81046 1.49878 5.11327 1.59508 5.3667 1.7744C5.62013 1.95372 5.8117 2.20724 5.915 2.5H9.5C9.63261 2.5 9.75979 2.55268 9.85355 2.64645C9.94732 2.74022 10 2.8674 10 3C10 3.13261 9.94732 3.25979 9.85355 3.35356C9.75979 3.44733 9.63261 3.5 9.5 3.5H5.915C5.8117 3.79277 5.62013 4.04629 5.3667 4.22561C5.11327 4.40493 4.81046 4.50123 4.5 4.50123C4.18954 4.50123 3.88673 4.40493 3.6333 4.22561C3.37987 4.04629 3.1883 3.79277 3.085 3.5H2.5C2.36739 3.5 2.24021 3.44733 2.14645 3.35356C2.05268 3.25979 2 3.13261 2 3C2 2.8674 2.05268 2.74022 2.14645 2.64645C2.24021 2.55268 2.36739 2.5 2.5 2.5H3.085ZM7.5 5.5C7.36739 5.5 7.24021 5.55268 7.14645 5.64645C7.05268 5.74022 7 5.8674 7 6C7 6.13261 7.05268 6.25979 7.14645 6.35356C7.24021 6.44733 7.36739 6.5 7.5 6.5C7.63261 6.5 7.75979 6.44733 7.85355 6.35356C7.94732 6.25979 8 6.13261 8 6C8 5.8674 7.94732 5.74022 7.85355 5.64645C7.75979 5.55268 7.63261 5.5 7.5 5.5ZM6.085 5.5C6.1883 5.20724 6.37987 4.95372 6.6333 4.7744C6.88673 4.59508 7.18954 4.49878 7.5 4.49878C7.81046 4.49878 8.11327 4.59508 8.3667 4.7744C8.62013 4.95372 8.8117 5.20724 8.915 5.5H9.5C9.63261 5.5 9.75979 5.55268 9.85355 5.64645C9.94732 5.74022 10 5.8674 10 6C10 6.13261 9.94732 6.25979 9.85355 6.35356C9.75979 6.44733 9.63261 6.5 9.5 6.5H8.915C8.8117 6.79277 8.62013 7.04629 8.3667 7.22561C8.11327 7.40493 7.81046 7.50123 7.5 7.50123C7.18954 7.50123 6.88673 7.40493 6.6333 7.22561C6.37987 7.04629 6.1883 6.79277 6.085 6.5H2.5C2.36739 6.5 2.24021 6.44733 2.14645 6.35356C2.05268 6.25979 2 6.13261 2 6C2 5.8674 2.05268 5.74022 2.14645 5.64645C2.24021 5.55268 2.36739 5.5 2.5 5.5H6.085ZM4.5 8.5C4.36739 8.5 4.24021 8.55268 4.14645 8.64645C4.05268 8.74022 4 8.8674 4 9C4 9.13261 4.05268 9.25979 4.14645 9.35356C4.24021 9.44733 4.36739 9.5 4.5 9.5C4.63261 9.5 4.75979 9.44733 4.85355 9.35356C4.94732 9.25979 5 9.13261 5 9C5 8.8674 4.94732 8.74022 4.85355 8.64645C4.75979 8.55268 4.63261 8.5 4.5 8.5ZM3.085 8.5C3.1883 8.20724 3.37987 7.95372 3.6333 7.7744C3.88673 7.59508 4.18954 7.49878 4.5 7.49878C4.81046 7.49878 5.11327 7.59508 5.3667 7.7744C5.62013 7.95372 5.8117 8.20724 5.915 8.5H9.5C9.63261 8.5 9.75979 8.55268 9.85355 8.64645C9.94732 8.74022 10 8.8674 10 9C10 9.13261 9.94732 9.25979 9.85355 9.35356C9.75979 9.44733 9.63261 9.5 9.5 9.5H5.915C5.8117 9.79277 5.62013 10.0463 5.3667 10.2256C5.11327 10.4049 4.81046 10.5012 4.5 10.5012C4.18954 10.5012 3.88673 10.4049 3.6333 10.2256C3.37987 10.0463 3.1883 9.79277 3.085 9.5H2.5C2.36739 9.5 2.24021 9.44733 2.14645 9.35356C2.05268 9.25979 2 9.13261 2 9C2 8.8674 2.05268 8.74022 2.14645 8.64645C2.24021 8.55268 2.36739 8.5 2.5 8.5H3.085Z" fill="black"/>
</svg>
