<svg width="1em" height="1em" viewBox="0 0 12 12" fill="none" xmlns="http://www.w3.org/2000/svg">
<path fill-rule="evenodd" clip-rule="evenodd" d="M5.6465 4.14652C5.74026 4.05278 5.86742 4.00012 6 4.00012C6.13258 4.00012 6.25974 4.05278 6.3535 4.14652L9.182 6.97501C9.27308 7.06932 9.32348 7.19562 9.32234 7.32672C9.3212 7.45781 9.26861 7.58322 9.17591 7.67592C9.0832 7.76863 8.9578 7.82121 8.8267 7.82235C8.6956 7.82349 8.5693 7.77309 8.475 7.68202L6 5.20701L3.525 7.68202C3.4307 7.77309 3.3044 7.82349 3.1733 7.82235C3.0422 7.82121 2.91679 7.76863 2.82409 7.67592C2.73139 7.58322 2.6788 7.45781 2.67766 7.32672C2.67652 7.19562 2.72692 7.06932 2.818 6.97501L5.6465 4.14652Z" fill="currentColor"/>
</svg>
