<svg width="12" height="12" viewBox="0 0 12 12" fill="none" xmlns="http://www.w3.org/2000/svg">
<path fill-rule="evenodd" clip-rule="evenodd" d="M4.5 6.5C4.76522 6.5 5.01957 6.60536 5.20711 6.79289C5.39464 6.98043 5.5 7.23478 5.5 7.5V9.5C5.5 9.76522 5.39464 10.0196 5.20711 10.2071C5.01957 10.3946 4.76522 10.5 4.5 10.5H2.5C2.23478 10.5 1.98043 10.3946 1.79289 10.2071C1.60536 10.0196 1.5 9.76522 1.5 9.5V7.5C1.5 7.23478 1.60536 6.98043 1.79289 6.79289C1.98043 6.60536 2.23478 6.5 2.5 6.5H4.5ZM9.5 6.5C9.75229 6.49992 9.99528 6.5952 10.1803 6.76675C10.3653 6.93829 10.4786 7.17342 10.4975 7.425L10.5 7.5V9.5C10.5001 9.75229 10.4048 9.99528 10.2333 10.1803C10.0617 10.3653 9.82658 10.4786 9.575 10.4975L9.5 10.5H7.5C7.24771 10.5001 7.00472 10.4048 6.81973 10.2333C6.63474 10.0617 6.52142 9.82658 6.5025 9.575L6.5 9.5V7.5C6.49992 7.24771 6.5952 7.00472 6.76675 6.81973C6.93829 6.63474 7.17342 6.52142 7.425 6.5025L7.5 6.5H9.5ZM4.5 7.5H2.5V9.5H4.5V7.5ZM9.5 7.5H7.5V9.5H9.5V7.5ZM9.5 1.5C9.75229 1.49992 9.99528 1.5952 10.1803 1.76675C10.3653 1.93829 10.4786 2.17342 10.4975 2.425L10.5 2.5V4.5C10.5001 4.75229 10.4048 4.99528 10.2333 5.18027C10.0617 5.36526 9.82658 5.47858 9.575 5.4975L9.5 5.5H7.5C7.24771 5.50008 7.00472 5.4048 6.81973 5.23325C6.63474 5.06171 6.52142 4.82658 6.5025 4.575L6.5 4.5V2.5C6.49992 2.24771 6.5952 2.00472 6.76675 1.81973C6.93829 1.63474 7.17342 1.52142 7.425 1.5025L7.5 1.5H9.5ZM4.5 1.5C4.75229 1.49992 4.99528 1.5952 5.18027 1.76675C5.36526 1.93829 5.47858 2.17342 5.4975 2.425L5.5 2.5V4.5C5.50008 4.75229 5.4048 4.99528 5.23325 5.18027C5.06171 5.36526 4.82658 5.47858 4.575 5.4975L4.5 5.5H2.5C2.24771 5.50008 2.00472 5.4048 1.81973 5.23325C1.63474 5.06171 1.52142 4.82658 1.5025 4.575L1.5 4.5V2.5C1.49992 2.24771 1.5952 2.00472 1.76675 1.81973C1.93829 1.63474 2.17342 1.52142 2.425 1.5025L2.5 1.5H4.5ZM9.5 2.5H7.5V4.5H9.5V2.5ZM4.5 2.5H2.5V4.5H4.5V2.5Z" fill="black"/>
</svg>
