<svg width="12" height="12" viewBox="0 0 12 12" fill="none" xmlns="http://www.w3.org/2000/svg">
<path d="M5.31575 2.54475C4.86558 2.20456 4.3199 2.01439 3.7558 2.00111C3.1917 1.98783 2.63768 2.15211 2.172 2.47075C0.759502 3.437 0.595002 5.459 1.83275 6.64075L5.78425 10.4137C5.84238 10.4692 5.91965 10.5002 6 10.5002C6.08036 10.5002 6.15762 10.4692 6.21575 10.4137L10.1665 6.64125C11.4045 5.459 11.2398 3.437 9.827 2.47075C9.36119 2.15211 8.80704 1.98789 8.24283 2.0013C7.67862 2.01472 7.13289 2.20508 6.68275 2.5455L6 3.06175L5.31575 2.54475Z" fill="black"/>
</svg>
