<svg width="12" height="12" viewBox="0 0 12 12" fill="none" xmlns="http://www.w3.org/2000/svg">
<path d="M3.0665 10.5C2.4775 10.5 2 10.01 2 9.40502V5.00402C2 4.67152 2.1475 4.35652 2.4 4.14902L5.3335 1.74002C5.52093 1.58481 5.75665 1.49988 6 1.49988C6.24335 1.49988 6.47907 1.58481 6.6665 1.74002L9.5995 4.14902C9.8525 4.35652 10 4.67152 10 5.00402V9.40502C10 10.01 9.5225 10.5 8.9335 10.5H3.0665Z" stroke="black" stroke-linecap="round" stroke-linejoin="round"/>
<path d="M4.75 10.5V7.75C4.75 7.48478 4.85536 7.23043 5.04289 7.04289C5.23043 6.85536 5.48478 6.75 5.75 6.75H6.25C6.51522 6.75 6.76957 6.85536 6.95711 7.04289C7.14464 7.23043 7.25 7.48478 7.25 7.75V10.5" stroke="black" stroke-linecap="round" stroke-linejoin="round"/>
</svg>
