<svg width="12" height="12" viewBox="0 0 12 12" fill="none" xmlns="http://www.w3.org/2000/svg">
<g clip-path="url(#clip0_497_1425)">
<path d="M2 6.5C2.275 6.5 2.5 6.275 2.5 6C2.5 5.725 2.275 5.5 2 5.5C1.725 5.5 1.5 5.725 1.5 6C1.5 6.275 1.725 6.5 2 6.5ZM2 8.5C2.275 8.5 2.5 8.275 2.5 8C2.5 7.725 2.275 7.5 2 7.5C1.725 7.5 1.5 7.725 1.5 8C1.5 8.275 1.725 8.5 2 8.5ZM2 4.5C2.275 4.5 2.5 4.275 2.5 4C2.5 3.725 2.275 3.5 2 3.5C1.725 3.5 1.5 3.725 1.5 4C1.5 4.275 1.725 4.5 2 4.5ZM4 6.5H10C10.275 6.5 10.5 6.275 10.5 6C10.5 5.725 10.275 5.5 10 5.5H4C3.725 5.5 3.5 5.725 3.5 6C3.5 6.275 3.725 6.5 4 6.5ZM4 8.5H10C10.275 8.5 10.5 8.275 10.5 8C10.5 7.725 10.275 7.5 10 7.5H4C3.725 7.5 3.5 7.725 3.5 8C3.5 8.275 3.725 8.5 4 8.5ZM3.5 4C3.5 4.275 3.725 4.5 4 4.5H10C10.275 4.5 10.5 4.275 10.5 4C10.5 3.725 10.275 3.5 10 3.5H4C3.725 3.5 3.5 3.725 3.5 4ZM2 6.5C2.275 6.5 2.5 6.275 2.5 6C2.5 5.725 2.275 5.5 2 5.5C1.725 5.5 1.5 5.725 1.5 6C1.5 6.275 1.725 6.5 2 6.5ZM2 8.5C2.275 8.5 2.5 8.275 2.5 8C2.5 7.725 2.275 7.5 2 7.5C1.725 7.5 1.5 7.725 1.5 8C1.5 8.275 1.725 8.5 2 8.5ZM2 4.5C2.275 4.5 2.5 4.275 2.5 4C2.5 3.725 2.275 3.5 2 3.5C1.725 3.5 1.5 3.725 1.5 4C1.5 4.275 1.725 4.5 2 4.5ZM4 6.5H10C10.275 6.5 10.5 6.275 10.5 6C10.5 5.725 10.275 5.5 10 5.5H4C3.725 5.5 3.5 5.725 3.5 6C3.5 6.275 3.725 6.5 4 6.5ZM4 8.5H10C10.275 8.5 10.5 8.275 10.5 8C10.5 7.725 10.275 7.5 10 7.5H4C3.725 7.5 3.5 7.725 3.5 8C3.5 8.275 3.725 8.5 4 8.5ZM3.5 4C3.5 4.275 3.725 4.5 4 4.5H10C10.275 4.5 10.5 4.275 10.5 4C10.5 3.725 10.275 3.5 10 3.5H4C3.725 3.5 3.5 3.725 3.5 4Z" fill="black"/>
</g>
<defs>
<clipPath id="clip0_497_1425">
<rect width="12" height="12" fill="white"/>
</clipPath>
</defs>
</svg>
