<svg width="12" height="12" viewBox="0 0 12 12" fill="none" xmlns="http://www.w3.org/2000/svg">
<path d="M3.5 10.5C3.23478 10.5 2.98043 10.3946 2.79289 10.2071C2.60536 10.0196 2.5 9.76522 2.5 9.5V1.5H7L9.5 4V9.5C9.5 9.76522 9.39464 10.0196 9.20711 10.2071C9.01957 10.3946 8.76522 10.5 8.5 10.5H3.5Z" stroke="black" stroke-width="0.7" stroke-linecap="round" stroke-linejoin="round"/>
<path d="M6.5 1.5V4.5H9.5" stroke="black" stroke-width="0.7" stroke-linejoin="round"/>
<path d="M5.5 9C5.77614 9 6 8.77614 6 8.5C6 8.22386 5.77614 8 5.5 8C5.22386 8 5 8.22386 5 8.5C5 8.77614 5.22386 9 5.5 9Z" stroke="black" stroke-width="0.7"/>
<path d="M6 8.5V6L7 7" stroke="black" stroke-width="0.7" stroke-linecap="round" stroke-linejoin="round"/>
</svg>
