<svg width="12" height="12" viewBox="0 0 12 12" fill="none" xmlns="http://www.w3.org/2000/svg">
<path d="M3.5 4.25L4.5 3.25L3.5 2.25L2.5 3.25L3.5 4.25ZM2 7C1.725 7 1.48967 6.90217 1.294 6.7065C1.09833 6.51083 1.00033 6.27533 1 6V1.5C1 1.225 1.098 0.989667 1.294 0.794C1.49 0.598333 1.72533 0.500333 2 0.5H10C10.275 0.5 10.5105 0.598 10.7065 0.794C10.9025 0.99 11.0003 1.22533 11 1.5V6C11 6.275 10.9022 6.5105 10.7065 6.7065C10.5108 6.9025 10.2753 7.00033 10 7H8.3875C8.4375 6.83333 8.47083 6.66667 8.4875 6.5C8.50417 6.33333 8.50417 6.16667 8.4875 6H10V1.5H2V6H3.5125C3.49583 6.16667 3.49583 6.33333 3.5125 6.5C3.52917 6.66667 3.5625 6.83333 3.6125 7H2ZM8.25 3.5C8.45833 3.5 8.6355 3.42717 8.7815 3.2815C8.9275 3.13583 9.00033 2.95867 9 2.75C8.99967 2.54133 8.92683 2.36433 8.7815 2.219C8.63617 2.07367 8.459 2.00067 8.25 2C8.041 1.99933 7.864 2.07233 7.719 2.219C7.574 2.36567 7.501 2.54267 7.5 2.75C7.499 2.95733 7.572 3.1345 7.719 3.2815C7.866 3.4285 8.043 3.50133 8.25 3.5ZM2.5 11.5V10.45C2.5 10.1583 2.58133 9.8875 2.744 9.6375C2.90667 9.3875 3.12117 9.2 3.3875 9.075C3.79583 8.88333 4.22083 8.73967 4.6625 8.644C5.10417 8.54833 5.55 8.50033 6 8.5C6.45 8.49967 6.89583 8.54767 7.3375 8.644C7.77917 8.74033 8.20417 8.884 8.6125 9.075C8.87917 9.2 9.09383 9.3875 9.2565 9.6375C9.41917 9.8875 9.50033 10.1583 9.5 10.45V11.5H2.5ZM3.5 10.5H8.5V10.45C8.5 10.35 8.47083 10.2583 8.4125 10.175C8.35417 10.0917 8.27917 10.0292 8.1875 9.9875C7.8375 9.82917 7.47917 9.70833 7.1125 9.625C6.74583 9.54167 6.375 9.5 6 9.5C5.625 9.5 5.25417 9.54167 4.8875 9.625C4.52083 9.70833 4.1625 9.82917 3.8125 9.9875C3.72083 10.0292 3.64583 10.0917 3.5875 10.175C3.52917 10.2583 3.5 10.35 3.5 10.45V10.5ZM6 8C5.51667 8 5.10417 7.82917 4.7625 7.4875C4.42083 7.14583 4.25 6.73333 4.25 6.25C4.25 5.76667 4.42083 5.35417 4.7625 5.0125C5.10417 4.67083 5.51667 4.5 6 4.5C6.48333 4.5 6.89583 4.67083 7.2375 5.0125C7.57917 5.35417 7.75 5.76667 7.75 6.25C7.75 6.73333 7.57917 7.14583 7.2375 7.4875C6.89583 7.82917 6.48333 8 6 8ZM6 7C6.20833 7 6.3855 6.92717 6.5315 6.7815C6.6775 6.63583 6.75033 6.45867 6.75 6.25C6.74967 6.04133 6.67683 5.86433 6.5315 5.719C6.38617 5.57367 6.209 5.50067 6 5.5C5.791 5.49933 5.614 5.57233 5.469 5.719C5.324 5.86567 5.251 6.04267 5.25 6.25C5.249 6.45733 5.322 6.6345 5.469 6.7815C5.616 6.9285 5.793 7.00133 6 7Z" fill="black"/>
</svg>
