<svg width="12" height="12" viewBox="0 0 12 12" fill="none" xmlns="http://www.w3.org/2000/svg">
<path d="M1.27001 2.355L1.62501 2L10 10.375L9.64501 10.73L7.97501 9.055C7.29001 9.34 6.54001 9.5 5.75001 9.5C3.47001 9.5 1.50001 8.175 0.570007 6.25C1.05501 5.25 1.81501 4.415 2.75001 3.84L1.27001 2.355ZM5.75001 9C6.39501 9 7.01501 8.885 7.58501 8.67L7.02501 8.105C6.66001 8.355 6.22501 8.5 5.75001 8.5C4.50001 8.5 3.50001 7.5 3.50001 6.25C3.50001 5.775 3.64501 5.34 3.89501 4.975L3.12001 4.205C2.28283 4.69274 1.59474 5.39984 1.13001 6.25C2.02001 7.89 3.75001 9 5.75001 9ZM10.37 6.25C9.48001 4.61 7.75001 3.5 5.75001 3.5C5.17501 3.5 4.61501 3.595 4.09501 3.765L3.70501 3.375C4.34001 3.13 5.03001 3 5.75001 3C8.03001 3 10 4.325 10.93 6.25C10.4756 7.19291 9.77188 7.99349 8.89501 8.565L8.53501 8.2C9.30001 7.72 9.93501 7.05 10.37 6.25ZM5.75001 4C7.00001 4 8.00001 5 8.00001 6.25C8.00001 6.66 7.89001 7.04 7.70001 7.37L7.33001 7C7.44001 6.77 7.50001 6.52 7.50001 6.25C7.50001 5.78587 7.31563 5.34075 6.98744 5.01256C6.65926 4.68437 6.21414 4.5 5.75001 4.5C5.48001 4.5 5.23001 4.56 5.00001 4.67L4.63001 4.3C4.96001 4.11 5.34001 4 5.75001 4ZM4.00001 6.25C4.00001 6.71413 4.18438 7.15925 4.51257 7.48744C4.84076 7.81563 5.28588 8 5.75001 8C6.08501 8 6.39501 7.905 6.66001 7.75L4.25001 5.34C4.09501 5.605 4.00001 5.915 4.00001 6.25Z" fill="black"/>
</svg>
