<svg width="12" height="12" viewBox="0 0 12 12" fill="none" xmlns="http://www.w3.org/2000/svg">
<path d="M5.75001 9C7.75001 9 9.48001 7.89 10.37 6.25C9.48001 4.61 7.75001 3.5 5.75001 3.5C3.75001 3.5 2.02001 4.61 1.13001 6.25C2.02001 7.89 3.75001 9 5.75001 9ZM5.75001 3C8.03001 3 10 4.325 10.93 6.25C10 8.175 8.03001 9.5 5.75001 9.5C3.47001 9.5 1.50001 8.175 0.570007 6.25C1.50001 4.325 3.47001 3 5.75001 3ZM5.75001 4C7.00001 4 8.00001 5 8.00001 6.25C8.00001 7.5 7.00001 8.5 5.75001 8.5C4.50001 8.5 3.50001 7.5 3.50001 6.25C3.50001 5 4.50001 4 5.75001 4ZM5.75001 4.5C5.28588 4.5 4.84076 4.68437 4.51257 5.01256C4.18438 5.34075 4.00001 5.78587 4.00001 6.25C4.00001 6.71413 4.18438 7.15925 4.51257 7.48744C4.84076 7.81563 5.28588 8 5.75001 8C6.21414 8 6.65926 7.81563 6.98744 7.48744C7.31563 7.15925 7.50001 6.71413 7.50001 6.25C7.50001 5.78587 7.31563 5.34075 6.98744 5.01256C6.65926 4.68437 6.21414 4.5 5.75001 4.5Z" fill="black"/>
</svg>
