<svg width="12" height="12" viewBox="0 0 12 12" fill="none" xmlns="http://www.w3.org/2000/svg">
<path d="M5.68421 1.33333H12V2.66667H5.68421M5.68421 10.6667V9.33333H12V10.6667M5.68421 5.33333H12V6.66667H5.68421M3.78947 6.66667V8L1.68632 10.6667H3.78947V12H0V10.6667L2.10316 8H0V6.66667M2.52632 0H1.26316C0.568421 0 0 0.6 0 1.33333V5.33333H1.26316V4H2.52632V5.33333H3.78947V1.33333C3.78947 0.979711 3.65639 0.640573 3.4195 0.390524C3.18261 0.140476 2.86133 0 2.52632 0ZM2.52632 2.66667H1.26316V1.33333H2.52632V2.66667Z" fill="black"/>
</svg>
