<svg width="1em" height="1em" viewBox="0 0 12 12" fill="none" xmlns="http://www.w3.org/2000/svg">
<path d="M6 12C2.68235 12 0 9.31765 0 6C0 2.68235 2.68235 0 6 0C9.31765 0 12 2.68235 12 6C12 9.31765 9.28235 12 6 12ZM6 0.705882C3.07059 0.705882 0.705882 3.07059 0.705882 6C0.705882 8.92941 3.07059 11.2941 6 11.2941C8.92941 11.2941 11.2941 8.92941 11.2941 6C11.2941 3.07059 8.89412 0.705882 6 0.705882Z" fill="black"/>
<path d="M2.61277 10L2 9.74704C2.17021 9.36759 2.71489 9.14625 3.29362 8.89328C3.87234 8.64032 4.58723 8.35573 4.58723 8.00791V7.5336C4.38298 7.37549 4.04255 7.02767 3.97447 6.52174C3.80426 6.36364 3.53191 6.07905 3.53191 5.6996C3.53191 5.47826 3.63404 5.28854 3.70213 5.16206C3.63404 4.90909 3.56596 4.43478 3.56596 4.05534C3.56596 2.82213 4.48511 2 5.94894 2C6.35745 2 6.86808 2.09486 7.14043 2.37945C7.78723 2.50593 8.33191 3.20158 8.33191 4.05534C8.33191 4.59289 8.22979 5.03557 8.1617 5.25692C8.22979 5.35178 8.29787 5.50988 8.29787 5.6996C8.29787 6.11067 8.05957 6.39526 7.85532 6.52174C7.78723 7.02767 7.48085 7.34387 7.2766 7.50198V8.00791C7.2766 8.29249 7.88936 8.51383 8.43404 8.70356C9.08085 8.9249 9.7617 9.17787 10 9.68379L9.35319 9.90514C9.25106 9.65217 8.70638 9.46245 8.19574 9.30435C7.44681 9.05138 6.59574 8.7668 6.59574 8.03953V7.21739L6.76596 7.12253C6.76596 7.12253 7.17447 6.86957 7.17447 6.36364V6.14229L7.37872 6.04743C7.41277 6.04743 7.58298 5.95257 7.58298 5.6996C7.58298 5.63636 7.51489 5.5415 7.48085 5.50988L7.34468 5.3834L7.41277 5.2253C7.41277 5.2253 7.58298 4.71937 7.58298 4.08696C7.58298 3.48617 7.20851 3.04348 6.90213 3.04348H6.69787L6.59574 2.88538C6.59574 2.75889 6.35745 2.63241 5.94894 2.63241C4.89362 2.63241 4.24681 3.16996 4.24681 4.05534C4.24681 4.4664 4.41702 5.16206 4.41702 5.16206L4.45106 5.32016L4.31489 5.47826C4.28085 5.47826 4.21277 5.57312 4.21277 5.6996C4.21277 5.85771 4.41702 6.04743 4.51915 6.11067L4.65532 6.20553V6.36364C4.65532 6.83794 5.09787 7.09091 5.09787 7.12253L5.26809 7.21739V8.03953C5.26809 8.79842 4.38298 9.17787 3.56596 9.49407C3.19149 9.62055 2.68085 9.8419 2.61277 10Z" fill="currentColor"/>
</svg>
