<svg width="12" height="12" viewBox="0 0 12 12" fill="none" xmlns="http://www.w3.org/2000/svg">
<path d="M2.5 9.5C2.35834 9.5 2.23967 9.452 2.144 9.356C2.04834 9.26 2.00034 9.14133 2 9C1.99967 8.85867 2.04767 8.74 2.144 8.644C2.24034 8.548 2.359 8.5 2.5 8.5H6.5C6.64167 8.5 6.7605 8.548 6.8565 8.644C6.9525 8.74 7.00034 8.85867 7 9C6.99967 9.14133 6.95167 9.26017 6.856 9.3565C6.76033 9.45283 6.64167 9.50067 6.5 9.5H2.5ZM2.5 7.5C2.35834 7.5 2.23967 7.452 2.144 7.356C2.04834 7.26 2.00034 7.14133 2 7C1.99967 6.85867 2.04767 6.74 2.144 6.644C2.24034 6.548 2.359 6.5 2.5 6.5H9.5C9.64167 6.5 9.7605 6.548 9.8565 6.644C9.9525 6.74 10.0003 6.85867 10 7C9.99967 7.14133 9.95167 7.26017 9.856 7.3565C9.76033 7.45283 9.64167 7.50067 9.5 7.5H2.5ZM2.5 5.5C2.35834 5.5 2.23967 5.452 2.144 5.356C2.04834 5.26 2.00034 5.14133 2 5C1.99967 4.85867 2.04767 4.74 2.144 4.644C2.24034 4.548 2.359 4.5 2.5 4.5H9.5C9.64167 4.5 9.7605 4.548 9.8565 4.644C9.9525 4.74 10.0003 4.85867 10 5C9.99967 5.14133 9.95167 5.26017 9.856 5.3565C9.76033 5.45283 9.64167 5.50067 9.5 5.5H2.5ZM2.5 3.5C2.35834 3.5 2.23967 3.452 2.144 3.356C2.04834 3.26 2.00034 3.14133 2 3C1.99967 2.85867 2.04767 2.74 2.144 2.644C2.24034 2.548 2.359 2.5 2.5 2.5H9.5C9.64167 2.5 9.7605 2.548 9.8565 2.644C9.9525 2.74 10.0003 2.85867 10 3C9.99967 3.14133 9.95167 3.26017 9.856 3.3565C9.76033 3.45283 9.64167 3.50067 9.5 3.5H2.5Z" fill="black"/>
</svg>
