<svg width="12" height="12" viewBox="0 0 12 12" fill="none" xmlns="http://www.w3.org/2000/svg">
<path fill-rule="evenodd" clip-rule="evenodd" d="M1.33333 0C0.979711 0 0.640573 0.140476 0.390524 0.390524C0.140476 0.640573 0 0.979711 0 1.33333V10.6667C0 11.0203 0.140476 11.3594 0.390524 11.6095C0.640573 11.8595 0.979711 12 1.33333 12H10.6667C11.0203 12 11.3594 11.8595 11.6095 11.6095C11.8595 11.3594 12 11.0203 12 10.6667V1.33333C12 0.979711 11.8595 0.640573 11.6095 0.390524C11.3594 0.140476 11.0203 0 10.6667 0H1.33333ZM5.33333 1.33333H1.33333V4.66667H5.33333V1.33333ZM1.33333 6H5.33333C5.68696 6 6.02609 5.85952 6.27614 5.60948C6.52619 5.35943 6.66667 5.02029 6.66667 4.66667V1.33333H10.6667V10.6667H1.33333V6Z" fill="black"/>
</svg>
