<svg width="12" height="12" viewBox="0 0 12 12" fill="none" xmlns="http://www.w3.org/2000/svg">
<path d="M2 9C1.85834 9 1.73967 8.952 1.644 8.856C1.54834 8.76 1.50034 8.64133 1.5 8.5C1.49967 8.35867 1.54767 8.24 1.644 8.144C1.74034 8.048 1.859 8 2 8H10C10.1417 8 10.2605 8.048 10.3565 8.144C10.4525 8.24 10.5003 8.35867 10.5 8.5C10.4997 8.64133 10.4517 8.76017 10.356 8.8565C10.2603 8.95283 10.1417 9.00067 10 9H2ZM2 6.5C1.85834 6.5 1.73967 6.452 1.644 6.356C1.54834 6.26 1.50034 6.14133 1.5 6C1.49967 5.85867 1.54767 5.74 1.644 5.644C1.74034 5.548 1.859 5.5 2 5.5H10C10.1417 5.5 10.2605 5.548 10.3565 5.644C10.4525 5.74 10.5003 5.85867 10.5 6C10.4997 6.14133 10.4517 6.26017 10.356 6.3565C10.2603 6.45283 10.1417 6.50067 10 6.5H2ZM2 4C1.85834 4 1.73967 3.952 1.644 3.856C1.54834 3.76 1.50034 3.64133 1.5 3.5C1.49967 3.35867 1.54767 3.24 1.644 3.144C1.74034 3.048 1.859 3 2 3H10C10.1417 3 10.2605 3.048 10.3565 3.144C10.4525 3.24 10.5003 3.35867 10.5 3.5C10.4997 3.64133 10.4517 3.76017 10.356 3.8565C10.2603 3.95283 10.1417 4.00067 10 4H2Z" fill="black"/>
</svg>
