<svg width="12" height="12" viewBox="0 0 12 12" fill="none" xmlns="http://www.w3.org/2000/svg">
<path d="M6.02085 4.53238V11.1429M6.02085 4.53238L7.94159 6.73587M6.02085 4.53238L4.1001 6.73587M9.54221 8.20487C10.5147 8.20487 11.1428 7.3007 11.1428 6.185C11.1428 5.74328 11.0166 5.31376 10.7834 4.96221C10.5503 4.61066 10.2232 4.35647 9.85209 4.23858C9.795 3.41481 9.4974 2.6372 9.0074 2.03148C8.51741 1.42576 7.86366 1.02732 7.15185 0.900594C6.44004 0.773866 5.71177 0.926252 5.0848 1.33311C4.45782 1.73997 3.96878 2.37753 3.69675 3.1427C3.124 2.96057 2.51163 3.0469 1.99437 3.38273C1.47711 3.71855 1.09732 4.27635 0.938557 4.93341C0.77979 5.59048 0.85505 6.29298 1.14778 6.88639C1.44051 7.4798 1.92673 7.91549 2.49948 8.09763" stroke="black" stroke-linecap="round" stroke-linejoin="round"/>
</svg>
