<svg width="1em" height="1em" viewBox="0 0 12 12" fill="none" xmlns="http://www.w3.org/2000/svg">
<path d="M11.2622 8.72346L7.16297 1.60455C7.04424 1.4015 6.87441 1.23306 6.67038 1.11602C6.46635 0.998966 6.23523 0.937378 6.00001 0.937378C5.76478 0.937378 5.53366 0.998966 5.32963 1.11602C5.1256 1.23306 4.95577 1.4015 4.83704 1.60455L0.737818 8.72346C0.622608 8.92051 0.56189 9.14465 0.56189 9.37291C0.56189 9.60117 0.622608 9.82532 0.737818 10.0224C0.855234 10.2264 1.02483 10.3956 1.2292 10.5125C1.43357 10.6294 1.66536 10.6898 1.90079 10.6875H10.0992C10.3345 10.6896 10.5661 10.6291 10.7703 10.5122C10.9745 10.3954 11.1439 10.2263 11.2613 10.0224C11.3766 9.8254 11.4375 9.60129 11.4377 9.37304C11.4378 9.14478 11.3773 8.92059 11.2622 8.72346ZM10.2872 9.4594C10.2681 9.49188 10.2406 9.51861 10.2076 9.53677C10.1746 9.55492 10.1373 9.56382 10.0997 9.56252H1.90079C1.86314 9.56382 1.82585 9.55492 1.79284 9.53677C1.75984 9.51861 1.73235 9.49188 1.71329 9.4594C1.69712 9.4331 1.68855 9.40284 1.68855 9.37197C1.68855 9.34111 1.69712 9.31084 1.71329 9.28455L5.81251 2.16565C5.8328 2.1344 5.86059 2.10873 5.89333 2.09095C5.92608 2.07317 5.96275 2.06386 6.00001 2.06386C6.03726 2.06386 6.07393 2.07317 6.10668 2.09095C6.13942 2.10873 6.16721 2.1344 6.18751 2.16565L10.2863 9.28455C10.3026 9.31076 10.3113 9.34097 10.3115 9.37184C10.3116 9.40271 10.3032 9.43302 10.2872 9.4594ZM5.43751 6.37502V4.87502C5.43751 4.72584 5.49677 4.58276 5.60226 4.47727C5.70775 4.37178 5.85082 4.31252 6.00001 4.31252C6.14919 4.31252 6.29226 4.37178 6.39775 4.47727C6.50324 4.58276 6.56251 4.72584 6.56251 4.87502V6.37502C6.56251 6.5242 6.50324 6.66728 6.39775 6.77277C6.29226 6.87826 6.14919 6.93752 6.00001 6.93752C5.85082 6.93752 5.70775 6.87826 5.60226 6.77277C5.49677 6.66728 5.43751 6.5242 5.43751 6.37502ZM6.75001 8.25002C6.75001 8.39836 6.70602 8.54336 6.62361 8.6667C6.5412 8.79004 6.42406 8.88616 6.28702 8.94293C6.14997 8.9997 5.99917 9.01455 5.85369 8.98561C5.7082 8.95667 5.57457 8.88524 5.46968 8.78035C5.36479 8.67546 5.29336 8.54182 5.26442 8.39634C5.23548 8.25085 5.25033 8.10005 5.3071 7.96301C5.36386 7.82596 5.45999 7.70883 5.58333 7.62642C5.70667 7.54401 5.85167 7.50002 6.00001 7.50002C6.19892 7.50002 6.38968 7.57904 6.53034 7.71969C6.67099 7.86034 6.75001 8.05111 6.75001 8.25002Z" fill="currentColor"/>
</svg>
